<mxfile host="app.diagrams.net" modified="2022-02-18T02:00:31.935Z" agent="5.0 (Windows NT 10.0; Win64; x64) AppleWebKit/537.36 (KHTML, like Gecko) Chrome/98.0.4758.102 Safari/537.36" etag="6EkgYKS5qs_mEqsn51S0" version="16.2.4" type="github">
  <diagram id="3yHAgSKn5xGM-MJb-Vdv" name="Page-1">
    <mxGraphModel dx="603" dy="540" grid="1" gridSize="10" guides="1" tooltips="1" connect="1" arrows="1" fold="1" page="1" pageScale="1" pageWidth="2000" pageHeight="2000" math="0" shadow="0">
      <root>
        <mxCell id="0" />
        <mxCell id="1" parent="0" />
        <mxCell id="xHJFmMQ0QBWsZndkfXbH-2" value="多模式编辑器" style="text;html=1;align=center;verticalAlign=middle;resizable=0;points=[];autosize=1;strokeColor=#6c8ebf;fillColor=#dae8fc;fontSize=14;" vertex="1" parent="1">
          <mxGeometry x="310" y="200" width="100" height="20" as="geometry" />
        </mxCell>
        <mxCell id="xHJFmMQ0QBWsZndkfXbH-3" value="默认" style="text;html=1;align=center;verticalAlign=middle;resizable=0;points=[];autosize=1;strokeColor=#82b366;fillColor=#d5e8d4;fontSize=14;" vertex="1" parent="1">
          <mxGeometry x="260" y="250" width="40" height="20" as="geometry" />
        </mxCell>
        <mxCell id="xHJFmMQ0QBWsZndkfXbH-4" value="命令模式" style="text;html=1;align=center;verticalAlign=middle;resizable=0;points=[];autosize=1;strokeColor=#b85450;fillColor=#f8cecc;fontSize=14;" vertex="1" parent="1">
          <mxGeometry x="325" y="250" width="70" height="20" as="geometry" />
        </mxCell>
        <mxCell id="xHJFmMQ0QBWsZndkfXbH-5" value="插入模式" style="text;html=1;align=center;verticalAlign=middle;resizable=0;points=[];autosize=1;strokeColor=#b85450;fillColor=#f8cecc;fontSize=14;" vertex="1" parent="1">
          <mxGeometry x="485" y="380" width="70" height="20" as="geometry" />
        </mxCell>
        <mxCell id="xHJFmMQ0QBWsZndkfXbH-6" value="底行模式" style="text;html=1;align=center;verticalAlign=middle;resizable=0;points=[];autosize=1;strokeColor=#b85450;fillColor=#f8cecc;fontSize=14;" vertex="1" parent="1">
          <mxGeometry x="150" y="380" width="70" height="20" as="geometry" />
        </mxCell>
        <mxCell id="xHJFmMQ0QBWsZndkfXbH-7" value="" style="endArrow=classic;html=1;rounded=0;fontSize=14;entryX=0.538;entryY=-0.078;entryDx=0;entryDy=0;entryPerimeter=0;exitX=1.071;exitY=0.5;exitDx=0;exitDy=0;exitPerimeter=0;" edge="1" parent="1" source="xHJFmMQ0QBWsZndkfXbH-4" target="xHJFmMQ0QBWsZndkfXbH-5">
          <mxGeometry width="50" height="50" relative="1" as="geometry">
            <mxPoint x="340" y="370" as="sourcePoint" />
            <mxPoint x="390" y="320" as="targetPoint" />
          </mxGeometry>
        </mxCell>
        <mxCell id="xHJFmMQ0QBWsZndkfXbH-8" value="i、a、o" style="text;html=1;align=center;verticalAlign=middle;resizable=0;points=[];autosize=1;strokeColor=#d6b656;fillColor=#fff2cc;fontSize=14;" vertex="1" parent="1">
          <mxGeometry x="450" y="280" width="60" height="20" as="geometry" />
        </mxCell>
        <mxCell id="xHJFmMQ0QBWsZndkfXbH-9" value="" style="endArrow=classic;html=1;rounded=0;fontSize=14;entryX=1.003;entryY=1.098;entryDx=0;entryDy=0;entryPerimeter=0;exitX=0.307;exitY=-0.037;exitDx=0;exitDy=0;exitPerimeter=0;" edge="1" parent="1" source="xHJFmMQ0QBWsZndkfXbH-5" target="xHJFmMQ0QBWsZndkfXbH-4">
          <mxGeometry width="50" height="50" relative="1" as="geometry">
            <mxPoint x="340" y="370" as="sourcePoint" />
            <mxPoint x="390" y="320" as="targetPoint" />
          </mxGeometry>
        </mxCell>
        <mxCell id="xHJFmMQ0QBWsZndkfXbH-10" value="esc" style="text;html=1;align=center;verticalAlign=middle;resizable=0;points=[];autosize=1;strokeColor=#d6b656;fillColor=#fff2cc;fontSize=14;" vertex="1" parent="1">
          <mxGeometry x="400" y="320" width="40" height="20" as="geometry" />
        </mxCell>
        <mxCell id="xHJFmMQ0QBWsZndkfXbH-11" value="" style="endArrow=classic;html=1;rounded=0;fontSize=14;entryX=0.564;entryY=-0.118;entryDx=0;entryDy=0;entryPerimeter=0;exitX=0;exitY=1.098;exitDx=0;exitDy=0;exitPerimeter=0;" edge="1" parent="1" source="xHJFmMQ0QBWsZndkfXbH-4" target="xHJFmMQ0QBWsZndkfXbH-6">
          <mxGeometry width="50" height="50" relative="1" as="geometry">
            <mxPoint x="340" y="370" as="sourcePoint" />
            <mxPoint x="390" y="320" as="targetPoint" />
          </mxGeometry>
        </mxCell>
        <mxCell id="xHJFmMQ0QBWsZndkfXbH-12" value="shift + &lt;b&gt;:&lt;/b&gt;" style="text;html=1;align=center;verticalAlign=middle;resizable=0;points=[];autosize=1;strokeColor=#d6b656;fillColor=#fff2cc;fontSize=14;" vertex="1" parent="1">
          <mxGeometry x="190" y="300" width="60" height="20" as="geometry" />
        </mxCell>
        <mxCell id="xHJFmMQ0QBWsZndkfXbH-13" value="" style="rounded=0;whiteSpace=wrap;html=1;fontSize=14;fillColor=none;" vertex="1" parent="1">
          <mxGeometry x="90" y="230" width="560" height="230" as="geometry" />
        </mxCell>
        <mxCell id="xHJFmMQ0QBWsZndkfXbH-15" value="" style="endArrow=classic;html=1;rounded=0;fontSize=14;exitX=0.537;exitY=1.138;exitDx=0;exitDy=0;exitPerimeter=0;entryX=0.489;entryY=0.087;entryDx=0;entryDy=0;entryPerimeter=0;" edge="1" parent="1" source="xHJFmMQ0QBWsZndkfXbH-2" target="xHJFmMQ0QBWsZndkfXbH-13">
          <mxGeometry width="50" height="50" relative="1" as="geometry">
            <mxPoint x="340" y="370" as="sourcePoint" />
            <mxPoint x="390" y="320" as="targetPoint" />
          </mxGeometry>
        </mxCell>
      </root>
    </mxGraphModel>
  </diagram>
</mxfile>
